<?xml version="1.0" encoding="UTF-8" standalone="no"?>
<!-- Created with Inkscape (http://www.inkscape.org/) -->

<svg
   width="500"
   height="500"
   viewBox="0 0 132.29166 132.29167"
   version="1.1"
   id="svg1"
   xml:space="preserve"
   inkscape:version="1.3.2 (091e20e, 2023-11-25, custom)"
   sodipodi:docname="logo.svg"
   inkscape:export-filename="logo.png"
   inkscape:export-xdpi="96"
   inkscape:export-ydpi="96"
   xmlns:inkscape="http://www.inkscape.org/namespaces/inkscape"
   xmlns:sodipodi="http://sodipodi.sourceforge.net/DTD/sodipodi-0.dtd"
   xmlns="http://www.w3.org/2000/svg"
   xmlns:svg="http://www.w3.org/2000/svg"><sodipodi:namedview
     id="namedview1"
     pagecolor="#ffffff"
     bordercolor="#000000"
     borderopacity="0.25"
     inkscape:showpageshadow="2"
     inkscape:pageopacity="0.0"
     inkscape:pagecheckerboard="0"
     inkscape:deskcolor="#d1d1d1"
     inkscape:document-units="px"
     inkscape:zoom="1.4778115"
     inkscape:cx="255.78364"
     inkscape:cy="275.40725"
     inkscape:window-width="2365"
     inkscape:window-height="1360"
     inkscape:window-x="1066"
     inkscape:window-y="0"
     inkscape:window-maximized="0"
     inkscape:current-layer="layer1" /><defs
     id="defs1"><inkscape:path-effect
       effect="powerstroke"
       id="path-effect7"
       is_visible="true"
       lpeversion="1.3"
       scale_width="1"
       interpolator_type="CubicBezierJohan"
       interpolator_beta="0.2"
       start_linecap_type="zerowidth"
       end_linecap_type="zerowidth"
       offset_points="0,4.9921382"
       linejoin_type="extrp_arc"
       miter_limit="4"
       not_jump="false"
       sort_points="true"
       message="既存のノードを &lt;b&gt;Ctrl + クリック&lt;/b&gt;して移動します" /><inkscape:path-effect
       effect="powerstroke"
       id="path-effect6"
       is_visible="true"
       lpeversion="1.3"
       scale_width="1"
       interpolator_type="CubicBezierJohan"
       interpolator_beta="0.2"
       start_linecap_type="zerowidth"
       end_linecap_type="zerowidth"
       offset_points="0,4.9921382"
       linejoin_type="extrp_arc"
       miter_limit="4"
       not_jump="false"
       sort_points="true"
       message="既存のノードを &lt;b&gt;Ctrl + クリック&lt;/b&gt;して移動します" /><marker
       style="overflow:visible"
       id="ConcaveTriangle"
       refX="0"
       refY="0"
       orient="auto-start-reverse"
       inkscape:stockid="Concave triangle arrow"
       markerWidth="0.7"
       markerHeight="0.7"
       viewBox="0 0 1 1"
       inkscape:isstock="true"
       inkscape:collect="always"
       preserveAspectRatio="xMidYMid"><path
         transform="scale(0.7)"
         d="M -2,-4 9,0 -2,4 c 2,-2.33 2,-5.66 0,-8 z"
         style="fill:context-stroke;fill-rule:evenodd;stroke:none"
         id="path7" /></marker><rect
       x="36.878858"
       y="53.795765"
       width="296.72255"
       height="131.61354"
       id="rect2" /><rect
       x="36.878857"
       y="53.795765"
       width="296.72256"
       height="131.61354"
       id="rect2-6" /></defs><g
     inkscape:label="Layer 1"
     inkscape:groupmode="layer"
     id="layer1"><path
       sodipodi:type="star"
       style="fill:#cccccc;fill-opacity:1;stroke:#007f76;stroke-width:3.96875;stroke-linecap:round;stroke-linejoin:round;stroke-dasharray:none;stroke-opacity:1"
       id="path2"
       inkscape:flatsided="true"
       sodipodi:sides="6"
       sodipodi:cx="34.561378"
       sodipodi:cy="43.043476"
       sodipodi:r1="51.699936"
       sodipodi:r2="44.773457"
       sodipodi:arg1="1.5707963"
       sodipodi:arg2="2.0943951"
       inkscape:rounded="0"
       inkscape:randomized="0"
       d="m 34.56138,94.743412 -44.773459,-25.849967 -1e-6,-51.699936 44.773457,-25.8499688 44.773459,25.8499668 10e-7,51.699936 z"
       transform="matrix(1.0919699,0,0,1.0919699,28.405847,19.143652)" /><g
       id="g15"
       transform="matrix(1.0919699,0,0,1.0919699,67.61793,-55.11161)"><path
         id="rect14"
         style="fill:#ffffff;fill-opacity:1;stroke:none;stroke-width:0.79375;stroke-linecap:round;stroke-linejoin:round;stroke-dasharray:none;stroke-opacity:1"
         d="m -38.268981,66.646577 v 36.300113 h 20.454565 v -0.0935 h 3.119189 v 0.59015 h 2.552299 v 0.0786 h 4.2519369 V 75.591767 H -10.44329 v -4.017325 h -3.177584 v -2.917135 h -4.193542 v -2.01073 z" /><path
         d="m -38.157275,64.321769 a 1.2665121,1.2665121 0 0 0 -1.266513,1.266512 v 37.995369 a 1.2665121,1.2665121 0 0 0 1.266513,1.26651 h 30.396292 a 1.2665121,1.2665121 0 0 0 1.266512,-1.26651 V 75.720379 a 1.2665121,1.2665121 0 0 0 -9.57e-4,-0.01979 1.2665121,1.2665121 0 0 0 -0.0034,-0.06174 1.2665121,1.2665121 0 0 0 -0.0051,-0.06412 1.2665121,1.2665121 0 0 0 -0.0089,-0.05905 1.2665121,1.2665121 0 0 0 -0.01203,-0.06649 1.2665121,1.2665121 0 0 0 -0.01425,-0.05541 1.2665121,1.2665121 0 0 0 -0.01916,-0.06697 1.2665121,1.2665121 0 0 0 -0.02074,-0.05636 1.2665121,1.2665121 0 0 0 -0.02422,-0.06063 1.2665121,1.2665121 0 0 0 -0.02707,-0.05652 1.2665121,1.2665121 0 0 0 -0.02882,-0.0551 1.2665121,1.2665121 0 0 0 -0.03467,-0.05652 1.2665121,1.2665121 0 0 0 -0.03372,-0.0513 1.2665121,1.2665121 0 0 0 -0.03831,-0.0505 1.2665121,1.2665121 0 0 0 -0.03958,-0.04908 1.2665121,1.2665121 0 0 0 -0.06016,-0.06586 l -0.0134,-0.01298 -10.118799,-10.119116 a 1.2665121,1.2665121 0 0 0 -0.0078,-0.0071 1.2665121,1.2665121 0 0 0 -0.04275,-0.03863 1.2665121,1.2665121 0 0 0 -0.05066,-0.04496 1.2665121,1.2665121 0 0 0 -0.05557,-0.04069 1.2665121,1.2665121 0 0 0 -0.04607,-0.03277 1.2665121,1.2665121 0 0 0 -0.05778,-0.03483 1.2665121,1.2665121 0 0 0 -0.05224,-0.02961 1.2665121,1.2665121 0 0 0 -0.07235,-0.03372 1.2665121,1.2665121 0 0 0 -0.03958,-0.01741 1.2665121,1.2665121 0 0 0 -0.07599,-0.02675 1.2665121,1.2665121 0 0 0 -0.04559,-0.0152 1.2665121,1.2665121 0 0 0 -0.07077,-0.01662 1.2665121,1.2665121 0 0 0 -0.05351,-0.01203 1.2665121,1.2665121 0 0 0 -0.06681,-0.0093 1.2665121,1.2665121 0 0 0 -0.05858,-0.0071 1.2665121,1.2665121 0 0 0 -0.09942,-0.0043 z m 1.266512,2.533025 h 17.73117 v 8.865585 a 1.2665121,1.2665121 0 0 0 0.0065,0.126493 1.2665121,1.2665121 0 0 0 0.148815,0.480799 1.2665121,1.2665121 0 0 0 0.06602,0.10797 1.2665121,1.2665121 0 0 0 0.360956,0.350508 1.2665121,1.2665121 0 0 0 0.4694,0.182061 1.2665121,1.2665121 0 0 0 0.214833,0.01868 h 8.865583 v 25.33024 h -27.863277 z m 20.264194,1.790848 5.808225,5.808224 h -5.808225 z"
         fill="currentColor"
         id="path1"
         style="fill:#3d3d3d;fill-opacity:1;stroke-width:0.158314" /><path
         style="fill:#3d3d3d;fill-opacity:1;stroke:#3d3d3d;stroke-width:1.48402;stroke-linecap:round;stroke-linejoin:round;stroke-dasharray:none;stroke-opacity:1"
         d="M -33.557177,73.361515 H -21.36689"
         id="path11" /><path
         style="fill:#3d3d3d;fill-opacity:1;stroke:#3d3d3d;stroke-width:1.59065;stroke-linecap:round;stroke-linejoin:round;stroke-dasharray:none;stroke-opacity:1"
         d="m -33.457411,79.436864 h 21.043016"
         id="path12" /><path
         style="fill:#3d3d3d;fill-opacity:1;stroke:#3d3d3d;stroke-width:1.59065;stroke-linecap:round;stroke-linejoin:round;stroke-dasharray:none;stroke-opacity:1"
         d="m -33.457411,85.505958 h 21.043016"
         id="path12-3" /><text
         xml:space="preserve"
         transform="matrix(0.11168773,0,0,0.11168773,-40.636198,87.21556)"
         id="text2"
         style="font-size:56px;white-space:pre;shape-inside:url(#rect2);display:inline;fill:#3d3d3d;fill-opacity:1;stroke:#3d3d3d;stroke-width:3;stroke-linecap:round;stroke-linejoin:round;stroke-dasharray:none;stroke-opacity:1"><tspan
           x="36.878906"
           y="110.07492"
           id="tspan4"><tspan
             style="font-family:'Noto Sans JP';-inkscape-font-specification:'Noto Sans JP'"
             id="tspan1">NONMEM</tspan></tspan></text></g><g
       id="g14"
       transform="matrix(1.0919699,0,0,1.0919699,-10.397997,2.6734281)"><path
         id="rect14-9"
         style="fill:#ffffff;fill-opacity:1;stroke:none;stroke-width:0.79375;stroke-linecap:round;stroke-linejoin:round;stroke-dasharray:none;stroke-opacity:1"
         d="m 76.772545,67.986269 v 36.300111 h 20.45456 v -0.0935 h 3.119185 v 0.59015 h 2.5523 v 0.0786 h 4.25194 V 76.931459 h -2.5523 v -4.017325 h -3.17759 v -2.917135 h -4.193535 v -2.01073 z"
         inkscape:transform-center-x="-30.615373"
         inkscape:transform-center-y="11.458385" /><path
         d="m 77.479082,66.201747 a 1.2665121,1.2665121 0 0 0 -1.266513,1.266512 v 37.995361 a 1.2665121,1.2665121 0 0 0 1.266513,1.26651 h 30.396288 a 1.2665121,1.2665121 0 0 0 1.26652,-1.26651 V 77.600357 a 1.2665121,1.2665121 0 0 0 -9.6e-4,-0.01979 1.2665121,1.2665121 0 0 0 -0.003,-0.06174 1.2665121,1.2665121 0 0 0 -0.005,-0.06412 1.2665121,1.2665121 0 0 0 -0.009,-0.05905 1.2665121,1.2665121 0 0 0 -0.012,-0.06649 1.2665121,1.2665121 0 0 0 -0.0142,-0.05541 1.2665121,1.2665121 0 0 0 -0.0192,-0.06697 1.2665121,1.2665121 0 0 0 -0.0207,-0.05636 1.2665121,1.2665121 0 0 0 -0.0242,-0.06063 1.2665121,1.2665121 0 0 0 -0.0271,-0.05652 1.2665121,1.2665121 0 0 0 -0.0288,-0.0551 1.2665121,1.2665121 0 0 0 -0.0347,-0.05652 1.2665121,1.2665121 0 0 0 -0.0337,-0.0513 1.2665121,1.2665121 0 0 0 -0.0383,-0.0505 1.2665121,1.2665121 0 0 0 -0.0396,-0.04908 1.2665121,1.2665121 0 0 0 -0.0601,-0.06586 l -0.0134,-0.01298 -10.118801,-10.119116 a 1.2665121,1.2665121 0 0 0 -0.008,-0.0071 1.2665121,1.2665121 0 0 0 -0.0427,-0.03863 1.2665121,1.2665121 0 0 0 -0.0507,-0.04496 1.2665121,1.2665121 0 0 0 -0.0556,-0.04069 1.2665121,1.2665121 0 0 0 -0.0461,-0.03277 1.2665121,1.2665121 0 0 0 -0.0578,-0.03483 1.2665121,1.2665121 0 0 0 -0.0522,-0.02961 1.2665121,1.2665121 0 0 0 -0.0724,-0.03372 1.2665121,1.2665121 0 0 0 -0.0396,-0.01741 1.2665121,1.2665121 0 0 0 -0.076,-0.02675 1.2665121,1.2665121 0 0 0 -0.0456,-0.0152 1.2665121,1.2665121 0 0 0 -0.0708,-0.01662 1.2665121,1.2665121 0 0 0 -0.0535,-0.01203 1.2665121,1.2665121 0 0 0 -0.0668,-0.0093 1.2665121,1.2665121 0 0 0 -0.0586,-0.0071 1.2665121,1.2665121 0 0 0 -0.0994,-0.0043 z m 1.266507,2.533025 h 17.73117 v 8.865585 a 1.2665121,1.2665121 0 0 0 0.007,0.126493 1.2665121,1.2665121 0 0 0 0.14881,0.480799 1.2665121,1.2665121 0 0 0 0.066,0.10797 1.2665121,1.2665121 0 0 0 0.36096,0.350508 1.2665121,1.2665121 0 0 0 0.4694,0.182061 1.2665121,1.2665121 0 0 0 0.21483,0.01868 h 8.865581 V 104.19711 H 78.746069 Z m 20.2642,1.790848 5.808221,5.808224 h -5.808221 z"
         fill="currentColor"
         id="path1-7"
         style="fill:#3d3d3d;fill-opacity:1;stroke:none;stroke-width:0.158314;stroke-opacity:1" /><path
         style="fill:#3d3d3d;fill-opacity:1;stroke:#3d3d3d;stroke-width:1.48402;stroke-linecap:round;stroke-linejoin:round;stroke-dasharray:none;stroke-opacity:1"
         d="m 82.079179,75.241493 h 12.19029"
         id="path11-2" /><path
         style="fill:#3d3d3d;fill-opacity:1;stroke:#3d3d3d;stroke-width:1.59065;stroke-linecap:round;stroke-linejoin:round;stroke-dasharray:none;stroke-opacity:1"
         d="M 82.178949,81.316842 H 103.22196"
         id="path12-39" /><path
         style="fill:#3d3d3d;fill-opacity:1;stroke:#3d3d3d;stroke-width:1.59065;stroke-linecap:round;stroke-linejoin:round;stroke-dasharray:none;stroke-opacity:1"
         d="M 82.178949,87.385936 H 103.22196"
         id="path12-3-4" /><text
         xml:space="preserve"
         transform="matrix(0.12417024,0,0,0.12417024,74.616842,86.81557)"
         id="text2-5"
         style="font-size:48px;white-space:pre;shape-inside:url(#rect2-6);display:inline;fill:#3d3d3d;fill-opacity:1;stroke:#3d3d3d;stroke-width:3;stroke-linecap:round;stroke-linejoin:round;stroke-dasharray:none;stroke-opacity:1"><tspan
           x="36.878906"
           y="97.586777"
           id="tspan5">mrgsolve</tspan></text></g><path
       style="fill:none;fill-opacity:1;stroke:#007f76;stroke-width:2.70137;stroke-linecap:round;stroke-linejoin:round;stroke-dasharray:none;stroke-opacity:1;marker-end:url(#ConcaveTriangle)"
       d="m 37.387543,63.281552 c -1.599883,16.93711 6.173076,27.595517 19.758111,31.960286"
       id="path4"
       sodipodi:nodetypes="cc" /></g></svg>
